<?xml version="1.0" encoding="UTF-8"?>
<svg width="1920" height="1080" version="1.1" viewBox="0 0 1920 1080" xmlns="http://www.w3.org/2000/svg">
  <!-- Lab Background -->
  <rect width="1920" height="1080" fill="#1A1A1A"/>
  
  <!-- Lab Tables -->
  <rect x="100" y="600" width="800" height="50" fill="#4A4A4A"/>
  <rect x="1020" y="600" width="800" height="50" fill="#4A4A4A"/>
  
  <!-- Lab Equipment -->
  <!-- Beakers -->
  <g transform="translate(200,500)">
    <rect width="60" height="80" fill="none" stroke="#29B6F6" stroke-width="2"/>
    <path d="M0,20 h60" stroke="#29B6F6" stroke-width="2"/>
  </g>
  
  <g transform="translate(300,500)">
    <rect width="60" height="80" fill="none" stroke="#9C27B0" stroke-width="2"/>
    <path d="M0,40 h60" stroke="#9C27B0" stroke-width="2"/>
  </g>
  
  <!-- Test Tubes -->
  <g transform="translate(1100,500)">
    <rect width="20" height="90" fill="none" stroke="#4CAF50" stroke-width="2"/>
    <rect width="20" height="90" x="40" fill="none" stroke="#4CAF50" stroke-width="2"/>
    <rect width="20" height="90" x="80" fill="none" stroke="#4CAF50" stroke-width="2"/>
  </g>
  
  <!-- Computer Screens -->
  <g transform="translate(600,200)">
    <rect width="200" height="150" fill="#2A2A2A" stroke="#666" stroke-width="2"/>
    <rect width="180" height="130" x="10" y="10" fill="#333"/>
  </g>
  
  <g transform="translate(1200,200)">
    <rect width="200" height="150" fill="#2A2A2A" stroke="#666" stroke-width="2"/>
    <rect width="180" height="130" x="10" y="10" fill="#333"/>
  </g>
  
  <!-- Wall Decorations -->
  <g transform="translate(100,100)">
    <rect width="100" height="100" fill="none" stroke="#FFD700" stroke-width="2"/>
    <path d="M0,0 l100,100 M0,100 l100,-100" stroke="#FFD700" stroke-width="2"/>
  </g>
  
  <g transform="translate(1720,100)">
    <rect width="100" height="100" fill="none" stroke="#FFD700" stroke-width="2"/>
    <path d="M0,0 l100,100 M0,100 l100,-100" stroke="#FFD700" stroke-width="2"/>
  </g>
</svg> 