<?xml version="1.0" encoding="UTF-8" standalone="no"?>
<svg xmlns="http://www.w3.org/2000/svg" width="400" height="600" viewBox="0 0 400 600">
  <!-- Base layer for Data (Statistics) -->
  <g id="data_base">
    <!-- Top Hat -->
    <g id="hat">
      <!-- Hat brim -->
      <rect x="145" y="125"
            width="110" height="8"
            fill="#FF4081"/>
      
      <!-- Hat top -->
      <rect x="160" y="85"
            width="80" height="40"
            fill="#FF4081"/>
            
      <!-- Hat band -->
      <rect x="160" y="105"
            width="80" height="8"
            fill="#263238"/>
      <!-- Band decoration -->
      <path d="M170 109 q15 -4 25 0 q15 4 25 0"
            stroke="#FFD740"
            stroke-width="2"
            fill="none"/>
    </g>

    <!-- Arms -->
    <g id="arms">
      <!-- Left Arm -->
      <rect x="115" y="200"
            width="25" height="70"
            fill="#FFD740"
            transform="rotate(-15 115 235)"/>
      <circle cx="110" cy="275" r="6" fill="#FFD740"/>

      <!-- Right Arm -->
      <rect x="260" y="200"
            width="25" height="70"
            fill="#FFD740"
            transform="rotate(15 285 235)"/>
      <circle cx="290" cy="275" r="6" fill="#FFD740"/>
    </g>

    <!-- Main chart body -->
    <g id="main_body">
      <!-- Background frame -->
      <rect id="frame"
            x="140" y="140"
            width="120" height="160"
            fill="#263238"
            stroke="#455A64"
            stroke-width="3"/>
      
      <!-- Bar chart body -->
      <g id="bars">
        <rect x="160" y="200" width="20" height="100" fill="#FFD740"/>
        <rect x="190" y="220" width="20" height="80" fill="#FFD740"/>
        <rect x="220" y="180" width="20" height="120" fill="#FFD740"/>
      </g>

      <!-- Face elements -->
      <g id="face">
        <!-- Eyebrows -->
        <path id="left_brow"
              d="M165 155 q20 -8 40 0"
              fill="none"
              stroke="#FF4081"
              stroke-width="2"/>
        <path id="right_brow"
              d="M195 155 q20 -8 40 0"
              fill="none"
              stroke="#FF4081"
              stroke-width="2"/>

        <!-- Eyes as pie charts -->
        <g id="left_eye">
          <circle cx="185" cy="175" r="12" fill="#FF4081"/>
          <path d="M185 175 l-12 0 a12 12 0 0 1 12 -12 z" fill="#F50057"/>
          <circle cx="185" cy="175" r="3" fill="#FFD740"/>
        </g>
        <g id="right_eye">
          <circle cx="215" cy="175" r="12" fill="#FF4081"/>
          <path d="M215 175 l-12 0 a12 12 0 0 1 12 -12 z" fill="#F50057"/>
          <circle cx="215" cy="175" r="3" fill="#FFD740"/>
        </g>

        <!-- Mouth with teeth -->
        <g id="mouth">
          <path d="M175 270 q15 -10 25 0 q15 10 25 0"
                fill="none"
                stroke="#FF4081"
                stroke-width="4"/>
          <circle cx="180" cy="270" r="1.5" fill="white"/>
          <circle cx="190" cy="267" r="1.5" fill="white"/>
          <circle cx="200" cy="265" r="1.5" fill="white"/>
          <circle cx="210" cy="267" r="1.5" fill="white"/>
          <circle cx="220" cy="270" r="1.5" fill="white"/>
        </g>
      </g>
    </g>

    <!-- Bowtie -->
    <g id="bowtie">
      <path d="M185 300 l-12 12 l12 12 z" fill="#FF4081"/>
      <path d="M215 300 l12 12 l-12 12 z" fill="#FF4081"/>
      <circle cx="200" cy="312" r="3" fill="#FFD740"/>
    </g>
  </g>
</svg> 