<?xml version="1.0" encoding="UTF-8" standalone="no"?>
<svg xmlns="http://www.w3.org/2000/svg" width="2560" height="1440" viewBox="0 0 2560 1440">
  <defs>
    <!-- Hexagon patterns at different depths -->
    <pattern id="hexPattern1" x="0" y="0" width="60" height="60" patternUnits="userSpaceOnUse">
      <path d="M30,0 L60,15 L60,45 L30,60 L0,45 L0,15 Z" 
            fill="none" stroke="#00ffff" stroke-width="1" opacity="0.3"/>
    </pattern>
    
    <pattern id="hexPattern2" x="10" y="10" width="40" height="40" patternUnits="userSpaceOnUse">
      <path d="M20,0 L40,10 L40,30 L20,40 L0,30 L0,10 Z" 
            fill="none" stroke="#ffffff" stroke-width="0.5" opacity="0.2"/>
    </pattern>
    
    <!-- Glow effects -->
    <filter id="glow">
      <feGaussianBlur stdDeviation="4" result="coloredBlur"/>
      <feMerge>
        <feMergeNode in="coloredBlur"/>
        <feMergeNode in="SourceGraphic"/>
      </feMerge>
    </filter>
    
    <!-- Gradient for background -->
    <linearGradient id="bgGradient" x1="0%" y1="0%" x2="100%" y2="100%">
      <stop offset="0%" style="stop-color:#000000"/>
      <stop offset="100%" style="stop-color:#001a1a"/>
    </linearGradient>
    
    <!-- 3D nucleus gradients -->
    <radialGradient id="sphereGradient" cx="40%" cy="40%" r="60%">
      <stop offset="0%" style="stop-color:#ffffff"/>
      <stop offset="75%" style="stop-color:#e0e0e0"/>
      <stop offset="100%" style="stop-color:#b0b0b0"/>
    </radialGradient>
    
    <radialGradient id="sphereHighlight" cx="30%" cy="30%" r="40%">
      <stop offset="0%" style="stop-color:#ffffff"/>
      <stop offset="100%" style="stop-color:#ffffff;stop-opacity:0"/>
    </radialGradient>
  </defs>
  
  <!-- Background -->
  <rect x="0" y="0" width="2560" height="1440" fill="url(#bgGradient)"/>
  <rect x="0" y="0" width="2560" height="1440" fill="url(#hexPattern1)"/>
  <rect x="0" y="0" width="2560" height="1440" fill="url(#hexPattern2)"/>
  
  <!-- Main content area -->
  <g transform="translate(1280, 720)">
    <!-- Large decorative orbits -->
    <g opacity="0.4">
      <ellipse cx="0" cy="0" rx="1000" ry="400" 
               stroke="#00ffff" stroke-width="3" fill="none" 
               transform="rotate(15)" filter="url(#glow)"
               stroke-dasharray="20,10"/>
      <ellipse cx="0" cy="0" rx="1100" ry="450" 
               stroke="#ffffff" stroke-width="2" fill="none" 
               transform="rotate(-15)" filter="url(#glow)"
               stroke-dasharray="20,10"/>
    </g>
    
    <!-- Title text -->
    <g transform="translate(0, 0)">
      <!-- Text shadow -->
      <text x="0" y="0" 
            font-family="Arial Black" font-size="150" 
            fill="#000000" opacity="0.5"
            text-anchor="middle" filter="url(#glow)"
            transform="translate(4,4)">
        GENIUS FORCE
      </text>
      <!-- Main text -->
      <text x="0" y="0" 
            font-family="Arial Black" font-size="150" 
            fill="#ffffff" 
            text-anchor="middle" filter="url(#glow)">
        GENIUS FORCE
      </text>
      <!-- Subtitle -->
      <text x="0" y="80" 
            font-family="Arial" font-size="50" 
            fill="#00ffff" 
            text-anchor="middle">
        Exploring Tomorrow's Technology Today
      </text>
    </g>
    
    <!-- Left atom -->
    <g transform="translate(-800, 0) scale(0.8)">
      <!-- Black circle background -->
      <circle cx="0" cy="0" r="120" fill="#000000"/>
      
      <!-- Hexagon patterns -->
      <circle cx="0" cy="0" r="120" fill="url(#hexPattern1)"/>
      <circle cx="0" cy="0" r="118" fill="url(#hexPattern2)"/>
      
      <!-- Orbits -->
      <g>
        <ellipse cx="0" cy="0" rx="90" ry="33" 
                 stroke="#ffffff" stroke-width="4" fill="none" 
                 transform="rotate(0,0,0)"
                 stroke-dasharray="12,3"/>
        <ellipse cx="0" cy="0" rx="90" ry="33" 
                 stroke="#ffffff" stroke-width="4" fill="none" 
                 transform="rotate(60,0,0)"
                 stroke-dasharray="12,3"/>
        <ellipse cx="0" cy="0" rx="90" ry="33" 
                 stroke="#ffffff" stroke-width="4" fill="none" 
                 transform="rotate(-60,0,0)"
                 stroke-dasharray="12,3"/>
      </g>
      
      <!-- Nucleus -->
      <circle cx="2" cy="2" r="35" fill="#000000" opacity="0.3"/>
      <circle cx="0" cy="0" r="35" fill="url(#sphereGradient)"/>
      <circle cx="0" cy="0" r="32" fill="url(#sphereHighlight)"/>
      <circle cx="0" cy="0" r="30" fill="none" stroke="#00ffff" stroke-width="2"/>
      <circle cx="0" cy="0" r="25" fill="none" stroke="#00ffff" stroke-width="2"/>
      
      <!-- Electrons -->
      <circle cx="0" cy="-37" r="8" fill="#00ffff"/>
      <circle cx="32" cy="18" r="8" fill="#00ffff"/>
      <circle cx="-32" cy="18" r="8" fill="#00ffff"/>
    </g>
    
    <!-- Right atom (mirrored) -->
    <g transform="translate(800, 0) scale(0.8)">
      <!-- Black circle background -->
      <circle cx="0" cy="0" r="120" fill="#000000"/>
      
      <!-- Hexagon patterns -->
      <circle cx="0" cy="0" r="120" fill="url(#hexPattern1)"/>
      <circle cx="0" cy="0" r="118" fill="url(#hexPattern2)"/>
      
      <!-- Orbits -->
      <g>
        <ellipse cx="0" cy="0" rx="90" ry="33" 
                 stroke="#ffffff" stroke-width="4" fill="none" 
                 transform="rotate(0,0,0)"
                 stroke-dasharray="12,3"/>
        <ellipse cx="0" cy="0" rx="90" ry="33" 
                 stroke="#ffffff" stroke-width="4" fill="none" 
                 transform="rotate(60,0,0)"
                 stroke-dasharray="12,3"/>
        <ellipse cx="0" cy="0" rx="90" ry="33" 
                 stroke="#ffffff" stroke-width="4" fill="none" 
                 transform="rotate(-60,0,0)"
                 stroke-dasharray="12,3"/>
      </g>
      
      <!-- Nucleus -->
      <circle cx="2" cy="2" r="35" fill="#000000" opacity="0.3"/>
      <circle cx="0" cy="0" r="35" fill="url(#sphereGradient)"/>
      <circle cx="0" cy="0" r="32" fill="url(#sphereHighlight)"/>
      <circle cx="0" cy="0" r="30" fill="none" stroke="#00ffff" stroke-width="2"/>
      <circle cx="0" cy="0" r="25" fill="none" stroke="#00ffff" stroke-width="2"/>
      
      <!-- Electrons -->
      <circle cx="0" cy="-37" r="8" fill="#00ffff"/>
      <circle cx="32" cy="18" r="8" fill="#00ffff"/>
      <circle cx="-32" cy="18" r="8" fill="#00ffff"/>
    </g>
  </g>
</svg>