<?xml version="1.0" encoding="UTF-8" standalone="no"?>
<svg xmlns="http://www.w3.org/2000/svg" width="400" height="200" viewBox="0 0 400 200">
  <defs>
    <radialGradient id="shield-gradient" cx="50%" cy="50%" r="75%">
      <stop offset="0%" style="stop-color:#00BCD4"/>
      <stop offset="100%" style="stop-color:#006064"/>
    </radialGradient>
    
    <!-- Center glow -->
    <radialGradient id="centerGlow">
      <stop offset="0%" style="stop-color:#ffffff"/>
      <stop offset="70%" style="stop-color:#ffffff"/>
      <stop offset="100%" style="stop-color:#00ffff"/>
    </radialGradient>
  </defs>
  
  <!-- Shield -->
  <path d="M200,30 L300,70 L270,160 L200,190 L130,160 L100,70 Z" 
        fill="url(#shield-gradient)" stroke="#333" stroke-width="3"/>
  
  <!-- Enhanced atom -->
  <g>
    <!-- Lightning effects -->
    <path d="M180,90 L160,105 L175,110 L165,125" stroke="#00ffff" stroke-width="2" fill="none"/>
    <path d="M220,90 L240,105 L225,110 L235,125" stroke="#00ffff" stroke-width="2" fill="none"/>
    
    <!-- Orbits with gradient -->
    <ellipse cx="200" cy="110" rx="40" ry="15" 
             stroke="#FFF" stroke-width="4" fill="none" transform="rotate(0,200,110)"
             stroke-dasharray="4,2"/>
    <ellipse cx="200" cy="110" rx="40" ry="15" 
             stroke="#FFF" stroke-width="4" fill="none" transform="rotate(60,200,110)"
             stroke-dasharray="4,2"/>
    <ellipse cx="200" cy="110" rx="40" ry="15" 
             stroke="#FFF" stroke-width="4" fill="none" transform="rotate(-60,200,110)"
             stroke-dasharray="4,2"/>
             
    <!-- Glowing center -->
    <circle cx="200" cy="110" r="15" fill="url(#centerGlow)"/>
  </g>
           
  <!-- Text outline layer -->
  <text x="200" y="175" font-family="Arial Black" font-size="24" fill="none" stroke="#000000" 
        stroke-width="3" text-anchor="middle">GENIUS FORCE</text>
  <!-- Text fill layer -->
  <text x="200" y="175" font-family="Arial Black" font-size="24" fill="white" 
        text-anchor="middle">GENIUS FORCE</text>
</svg>
