<?xml version="1.0" encoding="UTF-8" standalone="no"?>
<svg xmlns="http://www.w3.org/2000/svg" width="400" height="200" viewBox="0 0 400 200">
  <defs>
    <radialGradient id="shield-gradient" cx="50%" cy="50%" r="75%">
      <stop offset="0%" style="stop-color:#00BCD4"/>
      <stop offset="100%" style="stop-color:#006064"/>
    </radialGradient>
    
    <!-- 3D sphere network effect -->
    <radialGradient id="sphereNetwork">
      <stop offset="0%" style="stop-color:#ffffff;stop-opacity:0.1"/>
      <stop offset="80%" style="stop-color:#00ffff;stop-opacity:0.2"/>
      <stop offset="100%" style="stop-color:#00ffff;stop-opacity:0"/>
    </radialGradient>
    
    <!-- Hexagon patterns at different depths -->
    <pattern id="hexPattern1" x="0" y="0" width="12" height="12" patternUnits="userSpaceOnUse">
      <path d="M6,0 L12,3 L12,9 L6,12 L0,9 L0,3 Z" 
            fill="none" stroke="#ffffff" stroke-width="0.5" opacity="0.4"/>
    </pattern>
    
    <pattern id="hexPattern2" x="2" y="2" width="10" height="10" patternUnits="userSpaceOnUse">
      <path d="M5,0 L10,2.5 L10,7.5 L5,10 L0,7.5 L0,2.5 Z" 
            fill="none" stroke="#00ffff" stroke-width="0.3" opacity="0.3"/>
    </pattern>
    
    <pattern id="hexPattern3" x="4" y="4" width="8" height="8" patternUnits="userSpaceOnUse">
      <path d="M4,0 L8,2 L8,6 L4,8 L0,6 L0,2 Z" 
            fill="none" stroke="#ffffff" stroke-width="0.2" opacity="0.2"/>
    </pattern>

    <!-- 3D nucleus gradients -->
    <radialGradient id="sphereGradient" cx="40%" cy="40%" r="60%">
      <stop offset="0%" style="stop-color:#ffffff"/>
      <stop offset="75%" style="stop-color:#e0e0e0"/>
      <stop offset="100%" style="stop-color:#b0b0b0"/>
    </radialGradient>
    
    <radialGradient id="sphereHighlight" cx="30%" cy="30%" r="40%">
      <stop offset="0%" style="stop-color:#ffffff"/>
      <stop offset="100%" style="stop-color:#ffffff;stop-opacity:0"/>
    </radialGradient>
  </defs>
  
  <!-- Shield -->
  <path d="M200,30 L300,70 L270,160 L200,190 L130,160 L100,70 Z" 
        fill="url(#shield-gradient)" stroke="#333" stroke-width="3"/>
  
  <!-- Tech-style atom with 3D sphere network -->
  <g>
    <!-- 3D Network sphere layers -->
    <circle cx="200" cy="110" r="48" fill="url(#sphereNetwork)"/>
    <circle cx="200" cy="110" r="47" fill="url(#hexPattern1)"/>
    <circle cx="200" cy="110" r="46" fill="url(#hexPattern2)"/>
    <circle cx="200" cy="110" r="45" fill="url(#hexPattern3)"/>
    
    <!-- Sphere edge highlight -->
    <circle cx="200" cy="110" r="48" fill="none" stroke="#ffffff" stroke-width="0.5" opacity="0.5"/>
    <circle cx="200" cy="110" r="48" fill="none" stroke="#00ffff" stroke-width="0.3" opacity="0.3"/>
    
    <!-- Orbits with outline effect -->
    <!-- Orbit outlines (black) -->
    <ellipse cx="200" cy="110" rx="40" ry="15" 
             stroke="#000000" stroke-width="4" fill="none" transform="rotate(0,200,110)"
             stroke-dasharray="8,2"/>
    <ellipse cx="200" cy="110" rx="40" ry="15" 
             stroke="#000000" stroke-width="4" fill="none" transform="rotate(60,200,110)"
             stroke-dasharray="8,2"/>
    <ellipse cx="200" cy="110" rx="40" ry="15" 
             stroke="#000000" stroke-width="4" fill="none" transform="rotate(-60,200,110)"
             stroke-dasharray="8,2"/>
             
    <!-- Orbit inner lines (white) -->
    <ellipse cx="200" cy="110" rx="40" ry="15" 
             stroke="#FFF" stroke-width="2" fill="none" transform="rotate(0,200,110)"
             stroke-dasharray="8,2"/>
    <ellipse cx="200" cy="110" rx="40" ry="15" 
             stroke="#FFF" stroke-width="2" fill="none" transform="rotate(60,200,110)"
             stroke-dasharray="8,2"/>
    <ellipse cx="200" cy="110" rx="40" ry="15" 
             stroke="#FFF" stroke-width="2" fill="none" transform="rotate(-60,200,110)"
             stroke-dasharray="8,2"/>
    
    <!-- 3D nucleus -->
    <!-- Base shadow -->
    <circle cx="202" cy="112" r="15" fill="#000000" opacity="0.3"/>
    <!-- Main sphere -->
    <circle cx="200" cy="110" r="15" fill="url(#sphereGradient)" stroke="#000000" stroke-width="2"/>
    <!-- Highlight overlay -->
    <circle cx="200" cy="110" r="13" fill="url(#sphereHighlight)"/>
    <!-- Tech rings -->
    <circle cx="200" cy="110" r="12" fill="none" stroke="#00ffff" stroke-width="1" opacity="0.5"/>
    <circle cx="200" cy="110" r="8" fill="none" stroke="#00ffff" stroke-width="1" opacity="0.7"/>
    
    <!-- Connection points with outlines -->
    <circle cx="200" cy="95" r="3" fill="#000000"/>
    <circle cx="200" cy="95" r="2" fill="#00ffff"/>
    <circle cx="215" cy="117.5" r="3" fill="#000000"/>
    <circle cx="215" cy="117.5" r="2" fill="#00ffff"/>
    <circle cx="185" cy="117.5" r="3" fill="#000000"/>
    <circle cx="185" cy="117.5" r="2" fill="#00ffff"/>
  </g>
           
  <!-- Text outline layer -->
  <text x="200" y="180" font-family="Arial Black" font-size="24" fill="none" stroke="#000000" 
        stroke-width="3" text-anchor="middle">GENIUS FORCE</text>
  <!-- Text fill layer -->
  <text x="200" y="180" font-family="Arial Black" font-size="24" fill="white" 
        text-anchor="middle">GENIUS FORCE</text>
</svg>
