<?xml version="1.0" encoding="UTF-8" standalone="no"?>
<svg xmlns="http://www.w3.org/2000/svg" width="200" height="200" viewBox="0 0 200 200">
  <defs>
    <!-- Hexagon patterns -->
    <pattern id="hexPattern" x="0" y="0" width="20" height="20" patternUnits="userSpaceOnUse">
      <path d="M10,0 L20,5 L20,15 L10,20 L0,15 L0,5 Z" 
            fill="none" stroke="#00BCD4" stroke-width="1" opacity="0.3"/>
    </pattern>
    
    <!-- 3D nucleus gradients -->
    <radialGradient id="sphereGradient" cx="40%" cy="40%" r="60%">
      <stop offset="0%" style="stop-color:#ffffff"/>
      <stop offset="75%" style="stop-color:#f0f0f0"/>
      <stop offset="100%" style="stop-color:#e0e0e0"/>
    </radialGradient>
    
    <radialGradient id="sphereHighlight" cx="30%" cy="30%" r="40%">
      <stop offset="0%" style="stop-color:#ffffff"/>
      <stop offset="100%" style="stop-color:#ffffff;stop-opacity:0"/>
    </radialGradient>
  </defs>
  
  <!-- Black background circle -->
  <circle cx="100" cy="100" r="95" fill="#000000"/>
  
  <!-- Hexagon pattern overlay -->
  <circle cx="100" cy="100" r="95" fill="url(#hexPattern)"/>
  
  <!-- Atom structure -->
  <g transform="translate(100,100)">
    <!-- Orbits with white dashed outline -->
    <ellipse cx="0" cy="0" rx="60" ry="20" 
             stroke="#ffffff" stroke-width="4" fill="none" transform="rotate(0,0,0)"
             stroke-dasharray="8,4"/>
    <ellipse cx="0" cy="0" rx="60" ry="20" 
             stroke="#ffffff" stroke-width="4" fill="none" transform="rotate(60,0,0)"
             stroke-dasharray="8,4"/>
    <ellipse cx="0" cy="0" rx="60" ry="20" 
             stroke="#ffffff" stroke-width="4" fill="none" transform="rotate(-60,0,0)"
             stroke-dasharray="8,4"/>
    
    <!-- 3D nucleus -->
    <!-- Base shadow -->
    <circle cx="2" cy="2" r="25" fill="#000000" opacity="0.3"/>
    <!-- Main sphere -->
    <circle cx="0" cy="0" r="25" fill="url(#sphereGradient)"/>
    <!-- Inner rings -->
    <circle cx="0" cy="0" r="20" fill="none" stroke="#00ffff" stroke-width="1.5" opacity="0.7"/>
    <circle cx="0" cy="0" r="15" fill="none" stroke="#00ffff" stroke-width="1.5" opacity="0.7"/>
    <!-- Highlight overlay -->
    <circle cx="0" cy="0" r="22" fill="url(#sphereHighlight)"/>
    
    <!-- Electron dots -->
    <circle cx="0" cy="-20" r="4" fill="#00ffff"/>
    <circle cx="17.32" cy="10" r="4" fill="#00ffff"/>
    <circle cx="-17.32" cy="10" r="4" fill="#00ffff"/>
  </g>
</svg>
