<?xml version="1.0" encoding="UTF-8" standalone="no"?>
<svg xmlns="http://www.w3.org/2000/svg" width="400" height="200" viewBox="0 0 400 200">
  <defs>
    <radialGradient id="shield-gradient" cx="50%" cy="50%" r="75%">
      <stop offset="0%" style="stop-color:#00BCD4"/>
      <stop offset="100%" style="stop-color:#006064"/>
    </radialGradient>
    
    <!-- Hexagon pattern -->
    <pattern id="hexPattern" x="0" y="0" width="10" height="10" patternUnits="userSpaceOnUse">
      <path d="M5,0 L10,2.5 L10,7.5 L5,10 L0,7.5 L0,2.5 Z" 
            fill="none" stroke="#ffffff" stroke-width="0.5" opacity="0.3"/>
    </pattern>
  </defs>
  
  <!-- Shield -->
  <path d="M200,30 L300,70 L270,160 L200,190 L130,160 L100,70 Z" 
        fill="url(#shield-gradient)" stroke="#333" stroke-width="3"/>
  
  <!-- Tech-style atom -->
  <g>
    <!-- Background pattern -->
    <circle cx="200" cy="110" r="45" fill="url(#hexPattern)"/>
    
    <!-- Orbits with tech style -->
    <ellipse cx="200" cy="110" rx="40" ry="15" 
             stroke="#FFF" stroke-width="2" fill="none" transform="rotate(0,200,110)"
             stroke-dasharray="8,2"/>
    <ellipse cx="200" cy="110" rx="40" ry="15" 
             stroke="#FFF" stroke-width="2" fill="none" transform="rotate(60,200,110)"
             stroke-dasharray="8,2"/>
    <ellipse cx="200" cy="110" rx="40" ry="15" 
             stroke="#FFF" stroke-width="2" fill="none" transform="rotate(-60,200,110)"
             stroke-dasharray="8,2"/>
    
    <!-- Tech-style center -->
    <circle cx="200" cy="110" r="15" fill="#FFF"/>
    <circle cx="200" cy="110" r="12" fill="none" stroke="#00ffff" stroke-width="1"/>
    <circle cx="200" cy="110" r="8" fill="none" stroke="#00ffff" stroke-width="1"/>
    
    <!-- Connection points -->
    <circle cx="200" cy="95" r="2" fill="#00ffff"/>
    <circle cx="215" cy="117.5" r="2" fill="#00ffff"/>
    <circle cx="185" cy="117.5" r="2" fill="#00ffff"/>
  </g>
           
  <!-- Text outline layer -->
  <text x="200" y="175" font-family="Arial Black" font-size="24" fill="none" stroke="#000000" 
        stroke-width="3" text-anchor="middle">GENIUS FORCE</text>
  <!-- Text fill layer -->
  <text x="200" y="175" font-family="Arial Black" font-size="24" fill="white" 
        text-anchor="middle">GENIUS FORCE</text>
</svg>
